<svg id="Capa_1" data-name="Capa 1" xmlns="http://www.w3.org/2000/svg" viewBox="0 0 459.83 226"><defs><style>.cls-1{fill:#1b0f37;}</style></defs><title>negativeinfinity</title><g id="g3007"><path id="path3009" class="cls-1" d="M383.21,323.61c14.07,26.59,39.35,49.89,70.8,51,27.28,3,55.74-12.24,66-38.21,13.65-32.7,3.81-77.57-30.26-93.35-24.54-11.63-54.53-1.48-70.42,19.63-15.12,18.26-25.91,39.68-36.1,60.94h0Zm-35.08-30.76c-14.29-27.48-41.48-50.54-73.73-50.55-29.74-2.46-59.34,18-66.29,47.31-8.35,31.08,2.62,69.65,33.5,83.81,23.78,11.21,53,2.23,69-18,16-18.51,27.05-40.68,37.53-62.61h0Zm20.41,52.61c-16.57,31.19-39,65.12-75.72,73.56-32.34,7.55-66.79-7.8-85.64-34.52-27-35.55-28.76-84.71-16-126.07,10-31.64,37.35-60,71.89-61.64C293,193.25,320.9,210.64,338,234.1c9.83,9.7,21.29,31.73,25.48,38.48,15.82-31.22,38.44-67.2,74.72-75.64,31.43-7.56,65,7,83.87,32.68,29.28,36.24,31.6,88.1,17.12,130.89-10.58,30.42-37.41,57.33-70.93,58.86-28.54,3.24-56.23-11.55-73.07-34.08-10.13-12.38-18.7-26-26.6-39.83h0Z" transform="translate(-88 -194.95)"/></g><rect class="cls-1" y="123.05" width="63" height="32"/></svg>